<svg width="40" height="40" viewBox="0 0 40 40" fill="none" xmlns="http://www.w3.org/2000/svg">
<g filter="url(#filter0_d_318_49)">
<path d="M36 16C36 24.8366 28.8366 32 20 32C11.1634 32 4 24.8366 4 16C4 7.16344 11.1634 0 20 0C28.8366 0 36 7.16344 36 16Z" fill="white"/>
</g>
<path d="M25.3327 16V22.6667H14.666V16" stroke="#56597A" stroke-width="2" stroke-linecap="round" stroke-linejoin="round"/>
<path d="M26.6673 12.6667H13.334V16.0001H26.6673V12.6667Z" stroke="#56597A" stroke-width="2" stroke-linecap="round" stroke-linejoin="round"/>
<path d="M20 22.6666V12.6666" stroke="#56597A" stroke-width="2" stroke-linecap="round" stroke-linejoin="round"/>
<path d="M20.0007 12.6666H17.0007C16.5586 12.6666 16.1347 12.491 15.8221 12.1784C15.5096 11.8659 15.334 11.4419 15.334 10.9999C15.334 10.5579 15.5096 10.134 15.8221 9.82141C16.1347 9.50885 16.5586 9.33325 17.0007 9.33325C19.334 9.33325 20.0007 12.6666 20.0007 12.6666Z" stroke="#56597A" stroke-width="2" stroke-linecap="round" stroke-linejoin="round"/>
<path d="M20 12.6667H23C23.442 12.6667 23.866 12.4911 24.1785 12.1786C24.4911 11.866 24.6667 11.4421 24.6667 11C24.6667 10.558 24.4911 10.1341 24.1785 9.82153C23.866 9.50897 23.442 9.33337 23 9.33337C20.6667 9.33337 20 12.6667 20 12.6667Z" stroke="#56597A" stroke-width="2" stroke-linecap="round" stroke-linejoin="round"/>
<defs>
<filter id="filter0_d_318_49" x="0" y="0" width="40" height="40" filterUnits="userSpaceOnUse" color-interpolation-filters="sRGB">
<feFlood flood-opacity="0" result="BackgroundImageFix"/>
<feColorMatrix in="SourceAlpha" type="matrix" values="0 0 0 0 0 0 0 0 0 0 0 0 0 0 0 0 0 0 127 0" result="hardAlpha"/>
<feOffset dy="4"/>
<feGaussianBlur stdDeviation="2"/>
<feComposite in2="hardAlpha" operator="out"/>
<feColorMatrix type="matrix" values="0 0 0 0 0 0 0 0 0 0 0 0 0 0 0 0 0 0 0.25 0"/>
<feBlend mode="normal" in2="BackgroundImageFix" result="effect1_dropShadow_318_49"/>
<feBlend mode="normal" in="SourceGraphic" in2="effect1_dropShadow_318_49" result="shape"/>
</filter>
</defs>
</svg>
