<svg width="22" height="22" viewBox="0 0 22 22" fill="none" xmlns="http://www.w3.org/2000/svg">
<path fill-rule="evenodd" clip-rule="evenodd" d="M0.68705 10.8347C0.687049 10.4205 1.02339 10.0847 1.43829 10.0847L11.5617 10.0847C11.9766 10.0847 12.313 10.4205 12.313 10.8347C12.313 11.2489 11.9766 11.5847 11.5617 11.5847L1.43829 11.5847C1.0234 11.5847 0.687052 11.2489 0.68705 10.8347Z" fill="white"/>
<path fill-rule="evenodd" clip-rule="evenodd" d="M8.94477 14.9922C8.62078 14.7334 8.56826 14.2615 8.82744 13.938L11.3139 10.8351L8.82744 7.7322C8.56826 7.40875 8.62078 6.93678 8.94477 6.67802C9.26875 6.41927 9.7415 6.47171 10.0007 6.79515L12.8125 10.3041C13.0613 10.6145 13.0613 11.0557 12.8125 11.3661L10.0007 14.8751C9.7415 15.1985 9.26875 15.2509 8.94477 14.9922Z" fill="white"/>
<path fill-rule="evenodd" clip-rule="evenodd" d="M19.4673 2.08496L11.4541 2.08499C11.3158 2.08499 11.2037 2.19692 11.2037 2.33499V2.97785C11.2037 3.39206 10.8673 3.72785 10.4524 3.72785C10.0375 3.72785 9.70117 3.39206 9.70117 2.97785V2.33499C9.70117 1.36849 10.486 0.584991 11.4541 0.584988L19.4673 0.584961C20.4354 0.584958 21.2202 1.36846 21.2202 2.33496V19.335C21.2202 20.3015 20.4354 21.085 19.4673 21.085H11.4541C10.486 21.085 9.70117 20.3015 9.70117 19.335V18.6921C9.70117 18.2779 10.0375 17.9421 10.4524 17.9421C10.8673 17.9421 11.2037 18.2779 11.2037 18.6921V19.335C11.2037 19.473 11.3158 19.585 11.4541 19.585H19.4673C19.6056 19.585 19.7177 19.473 19.7177 19.335V2.33496C19.7177 2.19689 19.6056 2.08496 19.4673 2.08496Z" fill="white"/>
</svg>
