<svg width="22" height="17" viewBox="0 0 22 17" fill="none" xmlns="http://www.w3.org/2000/svg">
<path fill-rule="evenodd" clip-rule="evenodd" d="M2.78722 1.5C2.09488 1.5 1.53362 2.05964 1.53362 2.75V13.75C1.53362 14.4404 2.09487 15 2.78722 15H18.8333C19.5257 15 20.0869 14.4404 20.0869 13.75V2.75C20.0869 2.05964 19.5257 1.5 18.8333 1.5H2.78722ZM0.0292969 2.75C0.0292969 1.23122 1.26406 0 2.78722 0H18.8333C20.3565 0 21.5912 1.23122 21.5912 2.75V13.75C21.5912 15.2688 20.3565 16.5 18.8333 16.5H2.78722C1.26406 16.5 0.0292969 15.2688 0.0292969 13.75V2.75Z" fill="#56597A"/>
<path fill-rule="evenodd" clip-rule="evenodd" d="M0.608474 3.97418C0.791629 3.6024 1.24236 3.44906 1.61521 3.63169L10.7004 8.08177C10.7701 8.11592 10.8518 8.11592 10.9215 8.08177L20.0067 3.63169C20.3795 3.44906 20.8303 3.6024 21.0134 3.97418C21.1966 4.34596 21.0428 4.79539 20.6699 4.97802L11.5848 9.4281C11.0967 9.66714 10.5252 9.66714 10.0371 9.4281L0.951949 4.97802C0.579099 4.79539 0.42532 4.34596 0.608474 3.97418Z" fill="#56597A"/>
<path fill-rule="evenodd" clip-rule="evenodd" d="M14.4386 8.37728C14.3635 8.3229 14.2644 8.31437 14.181 8.3551L11.5826 9.62468C11.0954 9.8627 10.5252 9.8627 10.0381 9.62468L7.43964 8.3551C7.35627 8.31437 7.25716 8.3229 7.18203 8.37729L1.22337 12.6904C0.887205 12.9337 0.416856 12.8593 0.172822 12.5241C-0.0712124 12.1888 0.00347812 11.7199 0.339648 11.4765L6.2983 7.1634C6.8242 6.78274 7.518 6.72299 8.10156 7.00812L10.7 8.27769C10.7696 8.3117 10.851 8.3117 10.9206 8.27769L13.5191 7.00812C14.1026 6.72299 14.7964 6.78274 15.3223 7.1634L21.281 11.4765C21.6172 11.7199 21.6919 12.1888 21.4478 12.5241C21.2038 12.8593 20.7334 12.9337 20.3973 12.6904L14.4386 8.37728Z" fill="#56597A"/>
</svg>
