<svg width="40" height="40" viewBox="0 0 40 40" fill="none" xmlns="http://www.w3.org/2000/svg">
<g filter="url(#filter0_d_318_57)">
<circle cx="20" cy="16" r="16" fill="white"/>
</g>
<path d="M22.25 22.75V19.75C22.25 19.3522 22.408 18.9706 22.6893 18.6893C22.9706 18.408 23.3522 18.25 23.75 18.25H26.75" stroke="#56597A" stroke-width="2" stroke-linecap="round" stroke-linejoin="round"/>
<path d="M16.25 10V11.5C16.4118 11.9601 16.7187 12.3552 17.1245 12.6257C17.5303 12.8963 18.0131 13.0276 18.5 13V13C18.8978 13 19.2794 13.158 19.5607 13.4393C19.842 13.7206 20 14.1022 20 14.5C20 14.8978 20.158 15.2794 20.4393 15.5607C20.7206 15.842 21.1022 16 21.5 16C21.8978 16 22.2794 15.842 22.5607 15.5607C22.842 15.2794 23 14.8978 23 14.5C23 14.1022 23.158 13.7206 23.4393 13.4393C23.7206 13.158 24.1022 13 24.5 13H26.75" stroke="#56597A" stroke-width="2" stroke-linecap="round" stroke-linejoin="round"/>
<path d="M13.25 15.25H14.75C15.1478 15.25 15.5294 15.408 15.8107 15.6893C16.092 15.9706 16.25 16.3522 16.25 16.75V17.5C16.25 17.8978 16.408 18.2794 16.6893 18.5607C16.9706 18.842 17.3522 19 17.75 19C18.1478 19 18.5294 19.158 18.8107 19.4393C19.092 19.7206 19.25 20.1022 19.25 20.5V23.5" stroke="#56597A" stroke-width="2" stroke-linecap="round" stroke-linejoin="round"/>
<path d="M20 23.5C24.1421 23.5 27.5 20.1421 27.5 16C27.5 11.8579 24.1421 8.5 20 8.5C15.8579 8.5 12.5 11.8579 12.5 16C12.5 20.1421 15.8579 23.5 20 23.5Z" stroke="#56597A" stroke-width="2" stroke-linecap="round" stroke-linejoin="round"/>
<defs>
<filter id="filter0_d_318_57" x="0" y="0" width="40" height="40" filterUnits="userSpaceOnUse" color-interpolation-filters="sRGB">
<feFlood flood-opacity="0" result="BackgroundImageFix"/>
<feColorMatrix in="SourceAlpha" type="matrix" values="0 0 0 0 0 0 0 0 0 0 0 0 0 0 0 0 0 0 127 0" result="hardAlpha"/>
<feOffset dy="4"/>
<feGaussianBlur stdDeviation="2"/>
<feComposite in2="hardAlpha" operator="out"/>
<feColorMatrix type="matrix" values="0 0 0 0 0 0 0 0 0 0 0 0 0 0 0 0 0 0 0.25 0"/>
<feBlend mode="normal" in2="BackgroundImageFix" result="effect1_dropShadow_318_57"/>
<feBlend mode="normal" in="SourceGraphic" in2="effect1_dropShadow_318_57" result="shape"/>
</filter>
</defs>
</svg>
